<svg xmlns="http://www.w3.org/2000/svg" width="79.175" height="79.175" viewBox="0 0 79.175 79.175"><g transform="translate(-270.866 -318.14)"><path d="M310.454,397.315a39.588,39.588,0,1,1,39.588-39.585A39.632,39.632,0,0,1,310.454,397.315Zm0-73.309a33.722,33.722,0,1,0,33.723,33.723A33.761,33.761,0,0,0,310.454,324.007Z" fill="#f3f5f6"/><path d="M303.876,379.735a28.584,28.584,0,1,1,28.583-28.583A28.615,28.615,0,0,1,303.876,379.735Zm0-51.3a22.718,22.718,0,1,0,22.718,22.721A22.745,22.745,0,0,0,303.876,328.431Z" transform="translate(6.578 6.578)" fill="#f3f5f6"/><g transform="translate(301.301 342.479)"><path d="M301.412,347.077c0,3.913-2.933,5.988-6.67,6.521v2.371a2.46,2.46,0,0,1-2.459,2.461h0a2.46,2.46,0,0,1-2.461-2.461v-2.458a18.789,18.789,0,0,1-5.138-1.6,2.82,2.82,0,0,1-1.283-3.784h0a2.854,2.854,0,0,1,3.868-1.265,13.54,13.54,0,0,0,5.459,1.643c1.007,0,1.658-.326,1.658-1.069,0-2.7-10.759-.917-10.759-8.208,0-3.408,2.372-5.782,6.195-6.52v-2.312a2.46,2.46,0,0,1,2.461-2.461h0a2.46,2.46,0,0,1,2.459,2.461v2.222a18.872,18.872,0,0,1,3.948.935,2.9,2.9,0,0,1,1.628,3.98h0a2.89,2.89,0,0,1-3.706,1.439,14.181,14.181,0,0,0-4.683-1.258c-.773,0-1.275.239-1.275.86C290.654,341.181,301.412,339.55,301.412,347.077Z" transform="translate(-283.109 -327.931)" fill="#f3f5f6"/></g></g></svg>