<svg xmlns="http://www.w3.org/2000/svg" width="53" height="43" viewBox="0 0 53 43"><g><g><g><g><path fill="#d64c27" d="M8.013.621l42.245 7.58c1.672.3 2.787 1.917 2.49 3.61l-4.494 25.72c-.296 1.694-1.891 2.824-3.563 2.524l-42.245-7.58c-1.672-.3-2.787-1.917-2.49-3.61L4.45 3.145C4.746 1.45 6.341.32 8.013.62z"/></g><g><path fill="#d64c27" d="M18.465 33.563l3.268 8.354a1.2 1.2 0 0 0 1.995.318l5.569-6.754z"/></g></g><g><g><path fill="#fff" d="M26.482 15.747a3.747 3.747 0 0 0-5.231-.87l-1.11.794-.8-1.125a3.748 3.748 0 1 0-6.112 4.344l2.966 4.174c.006.008.01.018.016.027a3.747 3.747 0 0 0 5.23.87l4.172-2.983a3.75 3.75 0 0 0 .869-5.23z"/></g><g><g><path fill="#fff" d="M36.21 28.171l-3.176-.562 1.086-6.13c.132-.745.27-1.424.41-2.036a6.787 6.787 0 0 1-.861.615l-1.507.853-1.27-2.284 4.55-2.535 2.82.499z"/></g></g></g></g></g></svg>