<svg xmlns="http://www.w3.org/2000/svg" width="44" height="33" viewBox="0 0 44 33"><g><g><g><g><path fill="#eaeaea" d="M40.268 28.722L3.344 22.527C1.489 22.216.234 20.44.54 18.557L3.046 3.196C3.353 1.314 5.105.042 6.959.353l33.566 5.631c1.855.311 3.11 2.088 2.803 3.97z"/></g><g><path fill="#eaeaea" d="M40.97 24.15l-1.318 8.125a.612.612 0 0 1-1.127.22l-5.863-9.692z"/></g><g><g><path fill="#d64c27" d="M15.109 12.857a1.864 1.864 0 1 1-3.68-.597 1.864 1.864 0 0 1 3.68.597z"/></g><g><path fill="#d64c27" d="M23.001 14.137a1.864 1.864 0 1 1-3.68-.597 1.864 1.864 0 0 1 3.68.597z"/></g><g><path fill="#d64c27" d="M30.893 15.417a1.864 1.864 0 1 1-3.68-.598 1.864 1.864 0 0 1 3.68.598z"/></g></g></g></g></g></svg>