<svg xmlns="http://www.w3.org/2000/svg" xmlns:xlink="http://www.w3.org/1999/xlink" width="609.45" height="609.45"><circle cx="302.451" cy="299.096" r="118.104" fill="none" stroke="#54C68D" stroke-miterlimit="10" stroke-width="300"/><path fill="none" stroke="#5E9FA8" stroke-miterlimit="10" stroke-width="300" d="M321.164 183.14c28.168 4.308 52.48 18.236 70.107 37.934"/><path fill="none" stroke="#E2A78F" stroke-miterlimit="10" stroke-width="300" d="M256.217 188.49c21.994-9.056 45.688-11.01 68.066-6.518"/><path fill="none" stroke="#EAC8B5" stroke-miterlimit="10" stroke-width="300" d="M232.505 202.107a118.55 118.55 0 016.928-4.706 119.039 119.039 0 0118.939-9.681"/><path fill="none" stroke="#3E9368" stroke-miterlimit="10" stroke-width="300" d="M338.463 409.867c-59.408 18.945-123.917-11.746-146.246-70.755a118.228 118.228 0 01-7.192-31.151"/><path fill="#9EDBAB" stroke="#9EDBAB" stroke-miterlimit="10" stroke-width="300" d="M184.982 307.538a117.375 117.375 0 013.346-40.399"/><path fill="none" d="M149.141 132.191h546.885v598.074H149.141z"/><text fill="#FFF" font-family="'Impact'" font-size="400" transform="translate(149.14 448.585)">in</text></svg>