<svg xmlns="http://www.w3.org/2000/svg" width="87" height="145" viewBox="0 0 87 145"><g><g><path fill="#fff" d="M29.486 118.518a16.411 16.411 0 0 0-1.404-1.558c-4.492-4.376-7.35-10.16-7.526-16.472l-.03-1.008c-.152-5.443 2.179-10.653 6.24-14.338.332-.301.653-.62.965-.953l.057-.062c4.018-4.351 9.447-7.124 15.323-7.37l.772-.033c5.69-.238 11.296 1.716 15.321 5.69.222.218.45.43.687.638 6.164 5.406 15.78 5.074 21.704-.756 6.57-6.465 6.449-16.96-.13-23.095a15.978 15.978 0 0 0-.296-.27c-4.242-3.76-6.784-9.074-6.945-14.78-.173-6.194 2.26-12.133 6.46-16.749l.132-.146c5.722-6.44 5.314-16.48-.897-22.278-6.403-5.975-16.501-5.558-22.562.927-5.87 6.28-5.747 16.306.28 22.268l.155.15c4.405 4.242 7.126 9.938 7.298 16.095l.009.291c.16 5.7-2.132 11.157-6.09 15.317l-.112.12-.057.06c-4.027 4.362-9.467 7.143-15.358 7.39l-.74.03c-5.683.238-11.286-1.712-15.298-5.687a17.051 17.051 0 0 0-.698-.65c-6.162-5.41-15.78-5.084-21.71.745-6.574 6.466-6.454 16.963.127 23.1l.052.049c3.679 3.398 5.995 8.02 6.135 13.061l.079 2.815c.174 6.248-2.293 12.214-6.463 16.928a17.083 17.083 0 0 0-1.318 1.698c-3.966 5.83-3.618 13.713.832 19.063 6.69 8.042 19.11 7.516 25.323-1.083 4.147-5.739 4.02-13.67-.317-19.147z"/></g></g></svg>